<svg xmlns="http://www.w3.org/2000/svg" xmlns:xlink="http://www.w3.org/1999/xlink" width="2845.087" height="2814.103" viewBox="0 0 2845.087 2814.103">
  <defs>
    <linearGradient id="linear-gradient" x1="1.125" y1="1.299" x2="0.238" y2="0.189" gradientUnits="objectBoundingBox">
      <stop offset="0" stop-color="#dae3fe"/>
      <stop offset="1" stop-color="#e9effd"/>
    </linearGradient>
    <linearGradient id="linear-gradient-2" x1="0.704" y1="0.055" x2="1.399" y2="-1.869" gradientUnits="objectBoundingBox">
      <stop offset="0" stop-color="#09005d"/>
      <stop offset="1" stop-color="#1a0f91"/>
    </linearGradient>
    <linearGradient id="linear-gradient-3" x1="0.5" y1="-0.237" x2="0.5" y2="0.452" xlink:href="#linear-gradient-2"/>
    <linearGradient id="linear-gradient-4" x1="0.725" y1="8.818" x2="0.573" y2="3.38" xlink:href="#linear-gradient-2"/>
    <linearGradient id="linear-gradient-5" x1="-23.361" y1="-16.839" x2="-32.76" y2="37.244" gradientUnits="objectBoundingBox">
      <stop offset="0" stop-color="#4042e2"/>
      <stop offset="1" stop-color="#4f52ff"/>
    </linearGradient>
    <linearGradient id="linear-gradient-6" x1="-28.195" y1="-13.823" x2="-39.805" y2="14.449" xlink:href="#linear-gradient-5"/>
    <linearGradient id="linear-gradient-7" x1="-51.828" y1="-16.369" x2="-73.476" y2="7.06" xlink:href="#linear-gradient-5"/>
    <linearGradient id="linear-gradient-8" x1="-32.477" y1="-14.276" x2="-45.924" y2="11.372" xlink:href="#linear-gradient-5"/>
    <linearGradient id="linear-gradient-9" x1="-23.307" y1="-17.195" x2="-32.735" y2="33.643" xlink:href="#linear-gradient-5"/>
    <linearGradient id="linear-gradient-10" x1="-39.482" y1="-15.137" x2="-55.91" y2="8.977" xlink:href="#linear-gradient-5"/>
    <linearGradient id="linear-gradient-11" x1="-48.653" y1="-17.995" x2="-69.109" y2="5.504" xlink:href="#linear-gradient-5"/>
    <linearGradient id="linear-gradient-12" x1="-25.537" y1="-13.918" x2="-35.99" y2="18.598" xlink:href="#linear-gradient-5"/>
    <linearGradient id="linear-gradient-13" x1="-23.987" y1="-14.838" x2="-33.746" y2="24.522" xlink:href="#linear-gradient-5"/>
    <linearGradient id="linear-gradient-14" x1="-37.316" y1="-19.934" x2="-53.124" y2="4.208" xlink:href="#linear-gradient-5"/>
    <linearGradient id="linear-gradient-15" x1="-35.527" y1="-15.099" x2="-49.666" y2="35.381" xlink:href="#linear-gradient-5"/>
    <linearGradient id="linear-gradient-16" x1="-22.349" y1="-47.511" x2="-31.877" y2="3.13" xlink:href="#linear-gradient-5"/>
    <linearGradient id="linear-gradient-17" x1="-46.422" y1="-13.437" x2="-64.719" y2="22.887" xlink:href="#linear-gradient-5"/>
    <linearGradient id="linear-gradient-18" x1="-57.808" y1="-11.147" x2="-80.718" y2="12.481" xlink:href="#linear-gradient-5"/>
    <linearGradient id="linear-gradient-19" x1="-49.122" y1="-12.851" x2="-68.733" y2="10.953" xlink:href="#linear-gradient-5"/>
    <linearGradient id="linear-gradient-20" x1="-31.694" y1="-18.156" x2="-44.599" y2="8.397" xlink:href="#linear-gradient-5"/>
    <linearGradient id="linear-gradient-21" x1="-24.857" y1="-27.933" x2="-35.179" y2="6.348" xlink:href="#linear-gradient-5"/>
    <linearGradient id="linear-gradient-22" x1="-27.535" y1="-22.225" x2="-38.86" y2="7.307" xlink:href="#linear-gradient-5"/>
    <linearGradient id="linear-gradient-23" x1="-38.231" y1="-15.134" x2="-53.642" y2="9.607" xlink:href="#linear-gradient-5"/>
    <linearGradient id="linear-gradient-24" x1="-22.498" y1="-49.826" x2="-31.987" y2="5.047" xlink:href="#linear-gradient-5"/>
    <linearGradient id="linear-gradient-25" x1="-23.258" y1="-36.36" x2="-32.998" y2="5.555" xlink:href="#linear-gradient-5"/>
    <linearGradient id="linear-gradient-26" x1="-43.762" y1="-9.912" x2="-61.073" y2="14.222" xlink:href="#linear-gradient-5"/>
    <linearGradient id="linear-gradient-27" x1="-33.509" y1="-46.45" x2="-47.741" y2="2.64" xlink:href="#linear-gradient-5"/>
    <linearGradient id="linear-gradient-28" x1="-1.066" y1="4.239" x2="-0.908" y2="2.813" xlink:href="#linear-gradient-2"/>
    <linearGradient id="linear-gradient-29" x1="0" y1="0.5" x2="1" y2="0.5" xlink:href="#linear-gradient-5"/>
    <linearGradient id="linear-gradient-31" x1="-1.223" y1="4.524" x2="-1.066" y2="3.105" xlink:href="#linear-gradient-2"/>
    <linearGradient id="linear-gradient-34" x1="0.823" y1="-0.757" x2="0.354" y2="1.067" gradientUnits="objectBoundingBox">
      <stop offset="0" stop-color="#fe7062"/>
      <stop offset="1" stop-color="#ff928e"/>
    </linearGradient>
    <linearGradient id="linear-gradient-35" x1="13.096" y1="-4.735" x2="7.566" y2="-2.449" gradientUnits="objectBoundingBox">
      <stop offset="0" stop-color="#e1473d"/>
      <stop offset="1" stop-color="#e9605a"/>
    </linearGradient>
    <linearGradient id="linear-gradient-36" x1="13.918" y1="-16.063" x2="8.558" y2="-9.448" xlink:href="#linear-gradient-35"/>
    <linearGradient id="linear-gradient-37" x1="0.358" y1="0.029" x2="0.52" y2="1.093" xlink:href="#linear-gradient-2"/>
    <linearGradient id="linear-gradient-38" x1="0.812" y1="0.124" x2="-0.109" y2="2.605" xlink:href="#linear-gradient-34"/>
    <linearGradient id="linear-gradient-39" x1="-0.073" y1="1.74" x2="3.125" y2="-3.953" xlink:href="#linear-gradient-2"/>
    <linearGradient id="linear-gradient-40" x1="-0.432" y1="1.972" x2="3.116" y2="-3.633" xlink:href="#linear-gradient-2"/>
    <linearGradient id="linear-gradient-41" x1="-0.446" y1="2.356" x2="2.939" y2="-3.501" xlink:href="#linear-gradient-2"/>
    <linearGradient id="linear-gradient-42" x1="0.255" y1="0.827" x2="7.859" y2="-9.396" xlink:href="#linear-gradient-2"/>
    <linearGradient id="linear-gradient-43" x1="0.139" y1="1.162" x2="5.718" y2="-9.201" xlink:href="#linear-gradient-2"/>
    <linearGradient id="linear-gradient-44" x1="-0.055" y1="1.512" x2="5.625" y2="-8.945" xlink:href="#linear-gradient-2"/>
    <linearGradient id="linear-gradient-45" x1="-0.136" y1="1.855" x2="4.717" y2="-8.495" xlink:href="#linear-gradient-2"/>
    <linearGradient id="linear-gradient-46" x1="-0.492" y1="2.283" x2="5.412" y2="-8.381" xlink:href="#linear-gradient-2"/>
    <linearGradient id="linear-gradient-47" x1="10.667" y1="-0.484" x2="7.832" y2="6.012" xlink:href="#linear-gradient-2"/>
    <linearGradient id="linear-gradient-48" x1="38.623" y1="0.5" x2="39.623" y2="0.5" gradientUnits="objectBoundingBox">
      <stop offset="0" stop-color="#febbba"/>
      <stop offset="1" stop-color="#ff928e"/>
    </linearGradient>
    <linearGradient id="linear-gradient-49" x1="-5.512" y1="5.021" x2="-2.252" y2="4.188" gradientUnits="objectBoundingBox">
      <stop offset="0" stop-color="#020039"/>
      <stop offset="1" stop-color="#090056"/>
    </linearGradient>
    <linearGradient id="linear-gradient-50" x1="27.154" y1="-2.223" x2="20.137" y2="5.384" xlink:href="#linear-gradient-2"/>
    <linearGradient id="linear-gradient-51" x1="44.733" y1="0.5" x2="45.733" y2="0.5" xlink:href="#linear-gradient-48"/>
    <linearGradient id="linear-gradient-52" x1="-3.743" y1="4.863" x2="-1.447" y2="4.045" xlink:href="#linear-gradient-49"/>
    <linearGradient id="linear-gradient-53" x1="0.724" y1="-0.189" x2="0.119" y2="1.322" gradientUnits="objectBoundingBox">
      <stop offset="0" stop-color="#4f52ff"/>
      <stop offset="1" stop-color="#4042e2"/>
    </linearGradient>
    <linearGradient id="linear-gradient-54" x1="-94.019" y1="6.702" x2="-100.092" y2="10.402" xlink:href="#linear-gradient-48"/>
    <linearGradient id="linear-gradient-55" x1="-66.022" y1="9.452" x2="-70.335" y2="14.114" xlink:href="#linear-gradient-48"/>
    <linearGradient id="linear-gradient-56" x1="0.72" y1="-0.207" x2="0.241" y2="0.773" xlink:href="#linear-gradient-53"/>
    <linearGradient id="linear-gradient-57" x1="0.859" y1="-0.903" x2="0.003" y2="1.49" xlink:href="#linear-gradient-53"/>
    <linearGradient id="linear-gradient-58" x1="-47.725" y1="4.504" x2="-48.665" y2="7.453" xlink:href="#linear-gradient-48"/>
    <linearGradient id="linear-gradient-59" x1="-14.058" y1="3.339" x2="-16.836" y2="4.381" xlink:href="#linear-gradient-48"/>
    <linearGradient id="linear-gradient-60" x1="-27.552" y1="-16.981" x2="-26.464" y2="-16.981" xlink:href="#linear-gradient-2"/>
    <linearGradient id="linear-gradient-61" x1="-34.024" y1="9.255" x2="-40.928" y2="12.449" xlink:href="#linear-gradient-48"/>
    <linearGradient id="linear-gradient-62" x1="-18.274" y1="6.946" x2="-15.252" y2="8.718" xlink:href="#linear-gradient-48"/>
    <linearGradient id="linear-gradient-63" x1="-8.78" y1="6.654" x2="-7.135" y2="8.614" xlink:href="#linear-gradient-48"/>
    <linearGradient id="linear-gradient-64" x1="0.895" y1="-0.378" x2="-0.023" y2="1.377" xlink:href="#linear-gradient-53"/>
  </defs>
  <g id="Illustration" transform="translate(-432.454 -421.252)">
    <g id="Group_32" data-name="Group 32">
      <path id="Path_4" data-name="Path 4" d="M2929.45,2832.3c-58,60.317-112.872,99.214-156.229,129.946-509.644,361.246-1112.69,255.945-1240.85,230.229C1343.113,3154.5,977.282,3081.1,712.793,2773.832c-400.15-464.869-337.841-1197.26-27.457-1680.72,56.774-88.433,356.671-579.257,966.21-657.969,368.887-47.636,798.89,48.44,1110.29,306.169C3415.48,1282.31,3368.95,2375.22,2929.45,2832.3Z" fill="url(#linear-gradient)"/>
      <g id="Group_8" data-name="Group 8">
        <g id="Group_3" data-name="Group 3">
          <path id="Path_5" data-name="Path 5" d="M1596.81,3005.92c-17.825-321.259-136.968-614.319-559.945-822.808C1036.86,2183.11,971.21,2971.19,1596.81,3005.92Z" fill="#bdd0fb"/>
          <path id="Path_6" data-name="Path 6" d="M1480.65,2866.46a3.4,3.4,0,0,1-2.376-.967C1239.03,2632,1089.557,2289.439,1088.074,2286a3.4,3.4,0,0,1,6.249-2.7c1.476,3.42,150.444,344.778,388.7,577.314a3.4,3.4,0,0,1-2.377,5.84Z" fill="#fff" opacity="0.51"/>
        </g>
        <g id="Group_4" data-name="Group 4">
          <path id="Path_7" data-name="Path 7" d="M2334.19,2985.87c288.885,26.661,566.043-40.776,808.026-390.4C3142.22,2595.47,2448.05,2432.51,2334.19,2985.87Z" fill="#bdd0fb"/>
          <path id="Path_8" data-name="Path 8" d="M2498.1,2891.49a3.4,3.4,0,0,1-2.6-5.6c86.363-101.8,227.76-166.481,331.174-202.819,111.892-39.316,204.684-54.851,205.611-55a3.4,3.4,0,0,1,1.107,6.714c-3.676.608-369.2,62.785-532.7,255.507A3.412,3.412,0,0,1,2498.1,2891.49Z" fill="#fff" opacity="0.51"/>
        </g>
        <path id="Path_9" data-name="Path 9" d="M1630.3,2377.04l-60.74,544.75h704.71l-91.79-544.75Z" fill="url(#linear-gradient-2)"/>
        <g id="Group_5" data-name="Group 5">
          <path id="Path_10" data-name="Path 10" d="M446.521,1034.88V2282.51a189.265,189.265,0,0,0,184.388,189.211c455.7,11.75,2049.5,40.243,2483.29,33.849a139.263,139.263,0,0,0,137.107-135.3c8.365-289.842,21.95-986.815-28.324-1310.39a143.309,143.309,0,0,0-137.029-121.3c-381.816-12.215-2071.35-51-2504.94-41.262A137.56,137.56,0,0,0,446.521,1034.88Z" fill="url(#linear-gradient-3)"/>
          <path id="Path_11" data-name="Path 11" d="M524.806,1028.8V2214.14a109.659,109.659,0,0,0,108.019,109.647l2418.97,29.885a106.722,106.722,0,0,0,108.317-106.313l4.047-1174.75a78.052,78.052,0,0,0-76.151-78.319L611.432,944.259A84.568,84.568,0,0,0,524.806,1028.8Z" fill="#91b3fa"/>
          <path id="Path_12" data-name="Path 12" d="M3178.32,2402.3h-.057L524.75,2357.09a3.4,3.4,0,0,1-3.347-3.46,3.516,3.516,0,0,1,3.46-3.347l2653.51,45.212a3.4,3.4,0,0,1-.053,6.8Z" fill="#fff" opacity="0.65"/>
          <path id="Path_13" data-name="Path 13" d="M1877.74,2457.52a31.013,31.013,0,1,1,31.014-31.013A31.049,31.049,0,0,1,1877.74,2457.52Zm0-55.22a24.207,24.207,0,1,0,24.207,24.207A24.233,24.233,0,0,0,1877.74,2402.3Z" fill="#fff" opacity="0.65"/>
        </g>
        <g id="Group_6" data-name="Group 6">
          <path id="Path_14" data-name="Path 14" d="M2291.69,3000.99c309.876-153.826,548.931-395.8,575.6-902.145C2867.29,2098.84,2060.76,2368.11,2291.69,3000.99Z" fill="#7d97f4"/>
          <path id="Path_15" data-name="Path 15" d="M2341.81,2886.69a3.351,3.351,0,0,1-1.127-.193,3.4,3.4,0,0,1-2.084-4.337c73.969-210.869,183.9-373.451,263.091-472.71,85.835-107.585,155.154-166.115,155.845-166.694a3.4,3.4,0,0,1,4.374,5.218c-2.742,2.3-275.974,234.727-416.889,636.439A3.4,3.4,0,0,1,2341.81,2886.69Z" fill="#fff" opacity="0.51"/>
        </g>
        <g id="Group_7" data-name="Group 7">
          <path id="Path_16" data-name="Path 16" d="M2426.06,3033.25H1394.68c-28.02,0-49.061-19.947-43.644-41.373l13.234-52.34c3.98-15.74,21.3-27.3,41.864-27.938l994.293-31.026c21.488-.67,40.513,10.736,45.2,27.094l23.858,83.365C2475.68,3012.69,2454.53,3033.25,2426.06,3033.25Z" fill="url(#linear-gradient-4)"/>
          <path id="Path_17" data-name="Path 17" d="M1949.89,2925.82a3.4,3.4,0,0,1-.049-6.807l42.607-.622h.05a3.4,3.4,0,0,1,.049,6.807l-42.607.622Z" fill="#fff"/>
          <path id="Path_18" data-name="Path 18" d="M1389.22,3004.43a3.274,3.274,0,0,1-.538-.043,3.4,3.4,0,0,1-2.825-3.9l6.079-38.066a42.509,42.509,0,0,1,41.423-35.866l451.911-6.608h.05a3.4,3.4,0,0,1,.05,6.807l-451.911,6.608a35.713,35.713,0,0,0-34.8,30.129l-6.079,38.066A3.406,3.406,0,0,1,1389.22,3004.43Z" fill="#fff"/>
        </g>
      </g>
      <g id="Group_13" data-name="Group 13">
        <g id="Group_9" data-name="Group 9">
          <path id="Path_19" data-name="Path 19" d="M2681.8,523.653c15.422.73,30.985,2.143,46.252,4.194a14.338,14.338,0,0,0,3.815-28.422c-16.075-2.159-32.467-3.644-48.708-4.413a14.337,14.337,0,0,0-1.359,28.641Z" fill="url(#linear-gradient-5)"/>
          <path id="Path_20" data-name="Path 20" d="M2280.13,653.71a14.337,14.337,0,0,0-20.274-.431c-11.719,11.233-23.095,23.112-33.815,35.295a14.338,14.338,0,0,0,21.532,18.94c10.184-11.577,20.993-22.857,32.128-33.533A14.333,14.333,0,0,0,2280.13,653.71Z" fill="url(#linear-gradient-6)"/>
          <path id="Path_21" data-name="Path 21" d="M2104.32,977.718a14.351,14.351,0,0,0-16.14,12.274c-2.19,16.091-3.7,32.471-4.5,48.681a14.337,14.337,0,1,0,28.639,1.411c.757-15.4,2.2-30.946,4.274-46.226A14.343,14.343,0,0,0,2104.32,977.718Z" fill="url(#linear-gradient-7)"/>
          <path id="Path_22" data-name="Path 22" d="M2197.71,747.584a14.329,14.329,0,0,0-19.861,4.078c-8.952,13.57-17.419,27.67-25.165,41.9a14.336,14.336,0,1,0,25.183,13.709c7.363-13.523,15.408-26.924,23.92-39.821A14.336,14.336,0,0,0,2197.71,747.584Z" fill="url(#linear-gradient-8)"/>
          <path id="Path_23" data-name="Path 23" d="M2560.35,531.6c15.2-2.719,30.691-4.823,46.038-6.241a14.339,14.339,0,0,0-2.647-28.555c-16.147,1.5-32.447,3.71-48.443,6.57a14.337,14.337,0,1,0,5.052,28.226Z" fill="url(#linear-gradient-9)"/>
          <path id="Path_24" data-name="Path 24" d="M2138.1,857.392a14.353,14.353,0,0,0-18.473,8.362c-5.721,15.192-10.857,30.822-15.269,46.454a14.34,14.34,0,0,0,27.6,7.784c4.183-14.856,9.065-29.7,14.5-44.128A14.339,14.339,0,0,0,2138.1,857.392Z" fill="url(#linear-gradient-10)"/>
          <path id="Path_25" data-name="Path 25" d="M2098.3,1102.49a14.338,14.338,0,0,0-12.986,15.575c1.458,16.12,3.635,32.416,6.468,48.432a14.342,14.342,0,0,0,16.621,11.618,14.807,14.807,0,0,0,1.657-.4,14.337,14.337,0,0,0,9.962-16.219c-2.7-15.22-4.766-30.7-6.152-46.024A14.341,14.341,0,0,0,2098.3,1102.49Z" fill="url(#linear-gradient-11)"/>
          <path id="Path_26" data-name="Path 26" d="M2333.35,627.846a14.386,14.386,0,0,0,4.246-2.1c12.5-9.018,25.539-17.6,38.766-25.51a14.338,14.338,0,1,0-14.72-24.61c-13.927,8.331-27.662,17.37-40.821,26.867a14.34,14.34,0,0,0,12.529,25.358Z" fill="url(#linear-gradient-12)"/>
          <path id="Path_27" data-name="Path 27" d="M2442.18,566.669a15.29,15.29,0,0,0,1.449-.519c14.193-5.989,28.829-11.445,43.511-16.213a14.336,14.336,0,0,0-8.561-27.362c-.1.029-.2.059-.291.094-15.458,5.014-30.868,10.756-45.8,17.057a14.338,14.338,0,0,0,9.7,26.943Z" fill="url(#linear-gradient-13)"/>
          <path id="Path_28" data-name="Path 28" d="M2138.16,1234.54a14.508,14.508,0,0,0-17.836-9.516l-.269.081c-7.578,2.286-11.615,10.7-9.185,18.239,5,15.491,10.838,31.355,17.108,46.287a14.226,14.226,0,0,0,17.306,8.06,15.233,15.233,0,0,0,1.352-.741,14.294,14.294,0,0,0,7.687-18.726C2148.37,1264.04,2142.9,1249.26,2138.16,1234.54Z" fill="url(#linear-gradient-14)"/>
          <path id="Path_29" data-name="Path 29" d="M2841.75,540.453a14.338,14.338,0,0,0-9.2-18.068c-7.4-2.408-14.961-4.7-22.494-6.816a14.335,14.335,0,1,0-7.762,27.6c7.16,2.017,14.354,4.193,21.382,6.484a14.343,14.343,0,0,0,18.072-9.2Z" fill="url(#linear-gradient-15)"/>
        </g>
        <path id="Path_30" data-name="Path 30" d="M2602.57,1608.65c-15.1-1.481-30.328-3.629-45.242-6.377a14.336,14.336,0,0,0-5.2,28.2c15.707,2.9,31.739,5.156,47.644,6.717a14.336,14.336,0,1,0,2.8-28.536Z" fill="url(#linear-gradient-16)"/>
        <g id="Group_10" data-name="Group 10">
          <path id="Path_31" data-name="Path 31" d="M3194.1,854.275a14.339,14.339,0,0,0,25.8-12.52c-3.4-7-7-14.051-10.705-20.947a14.338,14.338,0,0,0-25.261,13.574C3187.46,840.93,3190.88,847.625,3194.1,854.275Z" fill="url(#linear-gradient-17)"/>
          <path id="Path_32" data-name="Path 32" d="M3259.25,1024.7a14.352,14.352,0,0,0-12.882,15.656c1.472,15.115,2.31,30.458,2.5,45.609a14.336,14.336,0,1,0,28.669-.364c-.2-15.951-1.084-32.1-2.63-48.016A14.328,14.328,0,0,0,3259.25,1024.7Z" fill="url(#linear-gradient-18)"/>
          <path id="Path_33" data-name="Path 33" d="M3260.71,1147.67a14.344,14.344,0,0,0-16.009,12.439c-1.891,15.042-4.454,30.2-7.617,45.059a14.337,14.337,0,0,0,28.046,5.965c3.328-15.64,6.027-31.6,8.019-47.449A14.326,14.326,0,0,0,3260.71,1147.67Z" fill="url(#linear-gradient-19)"/>
          <path id="Path_34" data-name="Path 34" d="M3163.92,1384.05c-8.134,12.8-16.916,25.418-26.1,37.512a14.336,14.336,0,1,0,22.832,17.342c9.667-12.726,18.906-26.007,27.469-39.475a14.337,14.337,0,1,0-24.2-15.379Z" fill="url(#linear-gradient-20)"/>
          <path id="Path_35" data-name="Path 35" d="M2995.59,1552.18c-12.842,8.12-26.168,15.773-39.61,22.752a14.338,14.338,0,0,0,13.216,25.45c14.155-7.353,28.192-15.411,41.714-23.96a14.339,14.339,0,0,0-15.32-24.242Z" fill="url(#linear-gradient-21)"/>
          <path id="Path_36" data-name="Path 36" d="M3089.03,1477.46c-10.75,10.741-22.065,21.139-33.637,30.9a14.337,14.337,0,1,0,18.491,21.916c12.185-10.279,24.1-21.225,35.413-32.536a14.336,14.336,0,1,0-20.267-20.28Z" fill="url(#linear-gradient-22)"/>
          <path id="Path_37" data-name="Path 37" d="M3235.06,1267.93a14.333,14.333,0,0,0-18.356,8.613c-5.146,14.258-10.971,28.486-17.309,42.3a14.337,14.337,0,0,0,26.062,11.957c6.669-14.536,12.8-29.516,18.216-44.517A14.342,14.342,0,0,0,3235.06,1267.93Z" fill="url(#linear-gradient-23)"/>
          <path id="Path_38" data-name="Path 38" d="M2771.38,1632.2c-15.086,1.871-30.414,3.131-45.557,3.733a14.335,14.335,0,1,0,1.135,28.648c15.945-.633,32.082-1.955,47.954-3.929a14.335,14.335,0,1,0-3.532-28.452Z" fill="url(#linear-gradient-24)"/>
          <path id="Path_39" data-name="Path 39" d="M2887.94,1604.55c-14.2,5.056-28.841,9.582-43.673,13.518a14.34,14.34,0,0,0,7.355,27.721q9.639-2.557,19.114-5.415c9.011-2.718,18.036-5.681,26.82-8.809a14.338,14.338,0,0,0-9.616-27.015Z" fill="url(#linear-gradient-25)"/>
          <path id="Path_40" data-name="Path 40" d="M3249.13,914.238a14.179,14.179,0,0,0-18.07-9.192,14.336,14.336,0,0,0-9.2,18.071q1.864,5.728,3.619,11.532c3.222,10.681,6.158,21.6,8.727,32.484a14.337,14.337,0,0,0,17.249,10.655c.289-.069.576-.144.858-.229a14.334,14.334,0,0,0,9.8-17.018c-2.7-11.44-5.79-22.939-9.178-34.172Q3251.083,920.264,3249.13,914.238Z" fill="url(#linear-gradient-26)"/>
        </g>
        <path id="Path_41" data-name="Path 41" d="M2485.08,1583.72c-7-2.318-14.078-4.826-21.048-7.456a14.337,14.337,0,1,0-10.124,26.828c7.337,2.77,14.793,5.412,22.163,7.851a14.337,14.337,0,0,0,9.009-27.223Z" fill="url(#linear-gradient-27)"/>
        <g id="Group_11" data-name="Group 11">
          <path id="Path_42" data-name="Path 42" d="M3125.47,948.12l-80.706-11.379a354.991,354.991,0,0,0-60.629-92.662l-104.17,20.02-79.612,86.318,70.28,152.172-177.873-5.945-103.968,77.411,14.114,136.606-109.332-21.2-37.219,36.914-21,78.536a6.7,6.7,0,0,0,2.726,7.287l81.1,54.7a6.7,6.7,0,0,0,7.778-.2l65.156-49.055a355.253,355.253,0,0,0,112.783,22.985l40.784,70.566a6.7,6.7,0,0,0,7.082,3.224l96.029-18.666a6.7,6.7,0,0,0,5.356-5.642l11.38-80.706a355.29,355.29,0,0,0,95.959-63.564l78.788,21.073a6.7,6.7,0,0,0,7.285-2.725l54.7-81.1a6.7,6.7,0,0,0-.2-7.778l-49.054-65.155a355.243,355.243,0,0,0,22.985-112.784l70.566-40.785a6.7,6.7,0,0,0,3.224-7.079l-18.666-96.031A6.7,6.7,0,0,0,3125.47,948.12Z" fill="url(#linear-gradient-28)"/>
          <path id="Path_43" data-name="Path 43" d="M2750.88,1151.69a75.434,75.434,0,0,1-95.3-27.318l-18.409,13.731a98.212,98.212,0,0,0,178.334-37.111l-23.276-.825A75.247,75.247,0,0,1,2750.88,1151.69Z" fill="url(#linear-gradient-29)"/>
          <path id="Path_44" data-name="Path 44" d="M2951.2,1011.34a239.734,239.734,0,0,0-90.616-126.233l-7.84,8.5a228.376,228.376,0,0,1,87.478,121.067,234.034,234.034,0,0,1,5.689,23.011,228.914,228.914,0,0,1-11.74,128.056c-27.918,70.824-90.28,126.417-170.4,141.978a231.418,231.418,0,0,1-48.861,4.232,5.734,5.734,0,1,0-.233,11.466c.969.017,1.939-.505,2.909-.5.5.007,1-.529,1.5-.529h.525c12.877,0,25.809-.506,38.6-2.568,2.594-.419,5.181-.609,7.76-1.111a245.714,245.714,0,0,0,24.119-5.83,241.694,241.694,0,0,0,167.087-277.421A245.172,245.172,0,0,0,2951.2,1011.34Z" fill="url(#linear-gradient-29)"/>
        </g>
        <g id="Group_12" data-name="Group 12">
          <path id="Path_45" data-name="Path 45" d="M2519.58,1248.58l-13.448-130.16,103.968-77.411,173.3,5.792a2.822,2.822,0,0,0,2.656-4l-68.36-148.015,79.612-86.318,104.17-20.02c-.986-1.091-1.935-2.218-2.935-3.3l21.074-78.79a6.7,6.7,0,0,0-2.725-7.283l-81.1-54.7a6.7,6.7,0,0,0-7.776.2l-65.156,49.055a355.233,355.233,0,0,0-112.783-22.986l-40.786-70.567a6.7,6.7,0,0,0-7.081-3.225l-96.027,18.668a6.7,6.7,0,0,0-5.357,5.643l-11.378,80.706a355.212,355.212,0,0,0-95.961,63.563l-78.787-21.073a6.7,6.7,0,0,0-7.287,2.726l-54.7,81.1a6.7,6.7,0,0,0,.2,7.775l49.053,65.156a355.186,355.186,0,0,0-22.983,112.784l-70.568,40.785a6.7,6.7,0,0,0-3.224,7.078l18.668,96.03a6.7,6.7,0,0,0,5.644,5.358l80.705,11.378a355.252,355.252,0,0,0,63.562,95.959l-.067.251,37.219-36.914,102.97,19.967A4.8,4.8,0,0,0,2519.58,1248.58Z" fill="url(#linear-gradient-31)"/>
          <path id="Path_46" data-name="Path 46" d="M2572.93,1068.74A74.862,74.862,0,0,1,2604.1,959.585a76.484,76.484,0,0,1,10.443-4,75.272,75.272,0,0,1,95.039,88.955l23.276.825a98.494,98.494,0,1,0-178.334,37.111Z" fill="url(#linear-gradient-29)"/>
          <path id="Path_47" data-name="Path 47" d="M2772.38,825.552a240.189,240.189,0,0,0-181.34-36.9c-130.833,25.435-216.651,152.607-191.208,283.487a244.267,244.267,0,0,0,5.9,23.841,241.071,241.071,0,0,0,51.432,91.494,5.734,5.734,0,0,0,9.757-5.488,5.653,5.653,0,0,0-1.224-2.175,230.452,230.452,0,0,1-54.606-109.864c-24.234-124.657,57.422-245.777,182.137-270.034a228.806,228.806,0,0,1,172.738,35.144c1.4.945,2.752,1.942,4.127,2.913l7.84-8.5C2776.09,828.156,2774.26,826.824,2772.38,825.552Z" fill="url(#linear-gradient-29)"/>
        </g>
      </g>
      <g id="Group_16" data-name="Group 16">
        <g id="Group_14" data-name="Group 14">
          <circle id="Ellipse_1" data-name="Ellipse 1" cx="282.007" cy="282.007" r="282.007" transform="translate(479.081 820.066) rotate(-45)" fill="#fff"/>
          <circle id="Ellipse_2" data-name="Ellipse 2" cx="272.63" cy="272.63" r="272.63" transform="translate(605.277 547.436)" fill="url(#linear-gradient-34)"/>
          <path id="Path_48" data-name="Path 48" d="M1102.72,709.7a2.881,2.881,0,0,0,2.568-4.178c-43.589-86.355-130.714-140-227.378-140a256.531,256.531,0,0,0-45.918,4.135,2.879,2.879,0,1,0,1.033,5.665,251.028,251.028,0,0,1,44.885-4.039c94.477,0,179.633,52.433,222.237,136.833A2.867,2.867,0,0,0,1102.72,709.7Z" fill="#fff" opacity="0.7"/>
          <circle id="Ellipse_3" data-name="Ellipse 3" cx="230.748" cy="230.748" r="230.748" transform="translate(545.631 826.006) rotate(-45)" fill="#fff"/>
        </g>
        <g id="Group_15" data-name="Group 15">
          <path id="Path_49" data-name="Path 49" d="M886.25,870.875l-26.114-.624c-7.279-.174-13.3-6.4-13.681-13.724l-9.56-183.976a11.933,11.933,0,0,1,3.768-9.483c2.6-2.563,6.205-3.388,9.97-3.126l44.973,3.132a13.76,13.76,0,0,1,9.733,4.36A13.926,13.926,0,0,1,909,677.468l-9.3,180.625A13.3,13.3,0,0,1,886.25,870.875Z" fill="url(#linear-gradient-35)"/>
          <path id="Path_50" data-name="Path 50" d="M845.95,915.814q9.78-9.34,27.492-9.052,18.242.291,27.69,9.6,9.442,9.282,9.435,27.14,0,17.224-9.645,26.668-9.678,9.478-27.481,9.484-17.483,0-27.385-9.814-9.914-9.849-9.921-26.932Q836.137,925.189,845.95,915.814Z" fill="url(#linear-gradient-36)"/>
        </g>
      </g>
      <g id="Group_21" data-name="Group 21">
        <g id="Group_17" data-name="Group 17">
          <path id="Path_51" data-name="Path 51" d="M1907.35,697.22,1179.37,1920.4c-15.982,26.854,4.908,59.711,38.139,59.984l1443.08,11.876c33.353.274,54.868-32.452,39.164-59.574L1984.65,697.63C1968.21,669.237,1924.15,669,1907.35,697.22Z" fill="url(#linear-gradient-37)"/>
          <path id="Path_52" data-name="Path 52" d="M1911.03,770.292l-661.151,1110.89c-14.515,24.389,4.458,54.229,34.637,54.477l1310.6,10.785c30.291.249,49.831-29.473,35.569-54.1l-649.45-1121.67C1966.31,744.878,1926.28,744.665,1911.03,770.292Z" fill="url(#linear-gradient-38)"/>
        </g>
        <g id="Group_20" data-name="Group 20">
          <g id="Group_18" data-name="Group 18">
            <path id="Path_53" data-name="Path 53" d="M1797.38,1531.51l-32.3.42v57.678l-55.737.93v-57.883l-116.433,1.514v-41.377l119.58-181.54,52.59.057v174.938l32.3-.326Zm-88.04-44.71v-47.379q0-11.843.925-34.389t1.48-26.176l-1.48.005a216.575,216.575,0,0,1-16.5,30.649l-49.9,77.95Z" fill="url(#linear-gradient-39)"/>
            <path id="Path_54" data-name="Path 54" d="M2010.41,1448.54q0,71.766-22.394,106.571-22.451,34.89-69.382,35.7-45.711.774-69.1-34.8-23.4-35.663-23.414-106.03,0-73.383,22.775-108.2,22.724-34.727,69.737-34.649,45.532.062,68.667,36.124Q2010.43,1379.231,2010.41,1448.54Zm-128.47,1q0,50.826,8.419,72.73,8.411,21.883,28.272,21.6,19.458-.27,28.08-22.591,8.62-22.3,8.62-72.316,0-50.581-8.709-72.654t-27.99-22.06q-19.674.033-28.182,22.235Q1881.945,1398.721,1881.94,1449.54Z" fill="url(#linear-gradient-40)"/>
            <path id="Path_55" data-name="Path 55" d="M2231.93,1525.86l-30.528.4v56.072l-52.674.879v-56.266l-110,1.43v-40.213l112.97-176.436,49.7.053v170.068l30.528-.308Zm-83.2-43.49v-46.055q0-11.511.875-33.428t1.4-25.444l-1.4.005a212.29,212.29,0,0,1-15.591,29.791l-47.138,75.756Z" fill="url(#linear-gradient-41)"/>
          </g>
          <g id="Group_19" data-name="Group 19">
            <path id="Path_56" data-name="Path 56" d="M1671.63,1833.59l-85.989,2.756v-153.62l85.989-1.923v26.544l-54.22,1.3v33.661l50.459-1.321v26.551l-50.459,1.406v39.536l54.22-1.646Z" fill="url(#linear-gradient-42)"/>
            <path id="Path_57" data-name="Path 57" d="M1739,1773.05v58.377l-31.282,1V1679.993l42.954-.961q29.925-.669,44.219,10.263,14.288,10.915,14.283,33.8a42.136,42.136,0,0,1-7.087,23.963q-7.1,10.608-20.107,16.884,33.006,50.171,42.947,64.726l-34.336,1.1-34.993-57.194Zm0-26.22,10.062-.268q14.773-.394,21.794-5.669t7.019-16.172q0-10.794-7.17-15.186t-22.247-4.036l-9.459.227v41.1Z" fill="url(#linear-gradient-43)"/>
            <path id="Path_58" data-name="Path 58" d="M1879.05,1769.08v57.856l-30.726.985V1676.847l42.191-.943q29.4-.657,43.434,10.18,14.036,10.821,14.031,33.507a42.022,42.022,0,0,1-6.962,23.749q-6.97,10.512-19.749,16.729,32.42,49.734,42.186,64.162l-33.729,1.081-34.372-56.694Zm0-25.98,9.884-.264q14.513-.387,21.408-5.614t6.894-16.026q0-10.7-7.043-15.053t-21.852-4.005l-9.291.224Z" fill="url(#linear-gradient-44)"/>
            <path id="Path_59" data-name="Path 59" d="M2114.81,1744.94q0,36.868-17.289,57.208-17.322,20.381-49.776,21.429-32.563,1.048-50.1-18.344Q1980.1,1785.8,1980.09,1748.4t17.6-57.536q17.567-20.1,50.246-20.816,32.566-.723,49.728,18.621Q2114.8,1707.976,2114.81,1744.94Zm-103.06,2.8q0,25.053,9.039,37.462t26.952,11.849q35.847-1.092,35.821-51.264,0-50.275-35.628-49.425-17.917.429-27.048,13.369Q2011.757,1722.69,2011.75,1747.74Z" fill="url(#linear-gradient-45)"/>
            <path id="Path_60" data-name="Path 60" d="M2178.26,1760.6v56.744l-29.554.947V1670.128l40.583-.908q28.277-.633,41.784,10,13.5,10.62,13.5,32.871a41.778,41.778,0,0,1-6.7,23.29,46.826,46.826,0,0,1-19,16.4q31.191,48.8,40.586,62.957l-32.449,1.04-33.067-55.626Zm0-25.48,9.507-.253q13.959-.372,20.593-5.495t6.632-15.715q0-10.494-6.775-14.767t-21.021-3.938l-8.937.215v39.953Z" fill="url(#linear-gradient-46)"/>
          </g>
        </g>
      </g>
      <g id="Group_31" data-name="Group 31">
        <path id="Path_61" data-name="Path 61" d="M1045.8,3113.92s-7.244,41.015-10.8,81.616a27.975,27.975,0,0,0,26.76,30.308c54.068,2.252,169.723,6.631,211.224,4.779a9.1,9.1,0,0,0,8.009-12.468h0a20.376,20.376,0,0,0-10.421-10.979l-191.04-87.8Z" fill="url(#linear-gradient-47)"/>
        <path id="Path_62" data-name="Path 62" d="M1039.86,3089.82l5.821,49.06s33.465,15.578,56.319-1.964l-13.859-54.672Z" fill="url(#linear-gradient-48)"/>
        <path id="Path_63" data-name="Path 63" d="M1044.24,2167.48c-2.514,12.812-13.5,639.334,53.475,920.1a9.531,9.531,0,0,1-5.59,11.085c-10.272,4.2-30.409,10.274-54.542,11.085a16.417,16.417,0,0,1-16.283-11.781c-19.144-65.141-110.875-391.522-122.841-703.3-13.371-348.385,0-11.862,0-11.862l7.842-215.35Z" fill="url(#linear-gradient-49)"/>
        <path id="Path_64" data-name="Path 64" d="M826.04,3135.32s-11.533,20.706-22.7,75.727a17.067,17.067,0,0,0,15.017,20.439c17.853,1.755,45.338,4.013,67.354,3.861a17.014,17.014,0,0,0,16.846-18.982c-2.438-20.083-10.036-53.033-33.506-78.714Z" fill="url(#linear-gradient-50)"/>
        <path id="Path_65" data-name="Path 65" d="M815.91,3072.22l13.6,74.192s13.448,10,40.051,2.751l-6.492-79.826Z" fill="url(#linear-gradient-51)"/>
        <path id="Path_66" data-name="Path 66" d="M779.167,2186.71c-54.773,330.558,11.881,817,34.361,912.212a14.845,14.845,0,0,0,11.989,11.274c10.034,1.663,26.555,3.021,42.841-1.709a13.61,13.61,0,0,0,9.783-12.531c3.016-76.974-2.412-549.516,48.623-736.267a42.422,42.422,0,0,1,16.363-23.4l99.057-70.421,7.594-113.83Z" fill="url(#linear-gradient-52)"/>
        <g id="Group_30" data-name="Group 30">
          <g id="Group_29" data-name="Group 29">
            <g id="Group_24" data-name="Group 24">
              <g id="Group_23" data-name="Group 23">
                <g id="Group_22" data-name="Group 22">
                  <path id="Path_67" data-name="Path 67" d="M1266.82,1715.51c-8.327,59.216-17.116,72.824-23.945,73.177-21.738,1.123-17.356-132.388-96.856-199.923-50.216-42.658-118.805-46.17-172.618-41.195q37.662,135.075,75.325,270.149c10.965,26.905,58.77,135.72,166.932,168.746,22.022,6.724,54.8,16.731,85.281,3.629,60.169-25.86,88.386-131.842,61.482-264.548C1349.77,1720.85,1332.27,1715.84,1266.82,1715.51Z" fill="url(#linear-gradient-53)"/>
                  <path id="Path_68" data-name="Path 68" d="M1247.65,1484.58l9.955,56.278c15.991,68.832,17.513,126.206,9.213,174.649,13.741.567,28.162,1.536,43.191,3.017,18.533,1.827,36.032,4.242,52.41,7.019-8.649-70-55.232-186.249-55.232-186.249C1279.09,1498.74,1275.74,1525.14,1247.65,1484.58Z" fill="url(#linear-gradient-54)"/>
                </g>
                <path id="Path_69" data-name="Path 69" d="M1361.45,1366a37.123,37.123,0,0,0-29.35,13.169l-71,84.131s-12.923-2.64-14.134-27.386-27.5-27.726-27.5-27.726,3.79,34.513,11.007,85.592c4.128,29.211,21.4,50.532,35.427,63.448l41.074-14.138c37.678-53.858,61.067-113.218,74.067-176.576Z" fill="url(#linear-gradient-55)"/>
              </g>
              <path id="Path_70" data-name="Path 70" d="M692.268,1594.89c4.733-1.242,37.072-34.655,41.933-35.582,79.707-15.191,278.657-68.773,411.815,29.46.333,2.836.543,5.1.674,6.977a74.141,74.141,0,0,1,5.491,9.4,448.748,448.748,0,0,0,44.94,70.182,45.754,45.754,0,0,0-9.26,13.129c-32,68.541-153.287,342.261-131.97,509.648a15.812,15.812,0,0,1-13.415,17.8c-47.082,6.511-187.3,22.392-259.744-7.524a11.092,11.092,0,0,1-6.847-10.436c.476-33.584-.944-179.34-54.38-355.036A197.476,197.476,0,0,1,716.59,1823c-.659,1.353-1.277,2.69-1.915,4.035Z" fill="url(#linear-gradient-56)"/>
              <path id="Path_71" data-name="Path 71" d="M813.909,1544.11c-148.643,10.869-179.706,95.811-282.432,43.876l18.19,159.068c38.092,42.069,95.6,70.717,168.072,81.456Z" fill="url(#linear-gradient-57)"/>
            </g>
            <g id="Group_26" data-name="Group 26">
              <path id="Path_72" data-name="Path 72" d="M915.474,1400.25c-25.469,50.773-36.1,102.483-39.291,150.627,5.478,2.042,78.581,52.752,127.513,3.666-10.46-33.688-8.73-84.406-6.069-136.426Z" fill="url(#linear-gradient-58)"/>
              <g id="Group_25" data-name="Group 25">
                <path id="Path_73" data-name="Path 73" d="M1048.09,1266.77c1.4,2.266,37.932,174.553,37.932,174.553l-98.816,18.768L928.32,1301.943C928.321,1301.95,1024.65,1228.84,1048.09,1266.77Z" fill="url(#linear-gradient-59)"/>
                <path id="Path_74" data-name="Path 74" d="M966.044,1316.01a14.475,14.475,0,0,0-2.238,12.538l24.125,84.441a14.089,14.089,0,0,0,1.594,3.62c3.9,6.228,17.9,25.057,36.773,9.6,16.087-13.177,31.053-25.066,44.468-28.026a14.437,14.437,0,0,1,17.163,11.247c3.367,16.177,9.5,48.958,10.863,78.847a14.38,14.38,0,0,1-12.653,14.866c-19.64,2.426-58.134,6.015-90.354,1.969a14.444,14.444,0,0,1-11.689-9.149c-8.456-21.9-32.4-83.177-41.828-99.436-8.754-15.1-32.006-16.531-42.706-16.34a14.526,14.526,0,0,1-10.756-4.453c-8.452-8.775-21.986-28.611.971-49.893a14.461,14.461,0,0,0,.769-20.131c-9.268-10.421-17.753-27.592-.083-46.974,17.888-19.621,39.469-16.025,53.324-10.432,6.13,2.475,13.457.877,17.472-4.375a9.555,9.555,0,0,1,8.722-3.741c7.916.49,14.686-5.054,15.229-12.966.931-13.568,7.325-29.8,30.942-35.6,43.316-10.63,67.311,32.057,68.062,62.859s-46.866,39.657-74.318,35.9C989.732,1287.62,973.33,1306.04,966.044,1316.01Z" fill="url(#linear-gradient-60)"/>
                <path id="Path_75" data-name="Path 75" d="M957.075,1428.55s-9.2-54.543-31.165-58.5-44.622,12.908-24.447,44.113C926.558,1452.98,957.075,1428.55,957.075,1428.55Z" fill="url(#linear-gradient-61)"/>
              </g>
            </g>
            <g id="Group_28" data-name="Group 28">
              <path id="Path_76" data-name="Path 76" d="M920.839,1232.33a50.618,50.618,0,0,1,12.579,1.179c10.445,2.213,24.36,7.582,20.736,17.628-5.443,15.087-33.68.991-48.715,25.315-13.248,21.434-2.4,44.711-6.459,67.81-1.973,11.237-9.193,27.922-19.231,34.485-4.489,2.935-39.941,8.55-41.88,2.259,0,0-9.851-31.971-9.854-31.982-8.863-28.764,25.191-76.694,42.755-96.072C884.34,1237.98,902.73,1233.07,920.839,1232.33Z" fill="url(#linear-gradient-62)"/>
              <g id="Group_27" data-name="Group 27">
                <path id="Path_77" data-name="Path 77" d="M887.235,1347.77,853.323,1376c-65.028,27.656-112.272,60.247-146.51,95.508a193.162,193.162,0,0,0-64.461-71.31c65.548-32.287,114.343-45.7,114.343-45.7C888.982,1301.3,887.235,1347.77,887.235,1347.77Z" fill="url(#linear-gradient-63)"/>
                <path id="Path_78" data-name="Path 78" d="M706.812,1471.51C599.9,1581.6,631.144,1525.659,630.294,1619.5c-.317,34.988-30.68,168.583-30.68,168.583-326.953-141.242-54.1-334.036,42.737-387.883A193.154,193.154,0,0,1,706.812,1471.51Z" fill="url(#linear-gradient-64)"/>
              </g>
            </g>
          </g>
        </g>
      </g>
    </g>
  </g>
</svg>
