<svg xmlns="http://www.w3.org/2000/svg" width="438.548" height="415.373" viewBox="0 0 438.548 415.373">
  <g id="Group_14" data-name="Group 14" transform="translate(-20.383 -46.873)">
    <g id="BACKGROUND">
      <ellipse id="Ellipse_1" data-name="Ellipse 1" cx="142.424" cy="160.232" rx="142.424" ry="160.232" transform="matrix(0.948, -0.32, 0.32, 0.948, 20.383, 137.915)" fill="#f5f5ff"/>
    </g>
    <g id="OBJECTS">
      <ellipse id="Ellipse_2" data-name="Ellipse 2" cx="60.92" cy="11.298" rx="60.92" ry="11.298" transform="translate(288.685 426.489)" fill="#dfdfeb"/>
      <g id="Group_4" data-name="Group 4">
        <rect id="Rectangle_1" data-name="Rectangle 1" width="248.898" height="164.014" rx="10.158" transform="translate(48.753 149.856)" fill="#d3ddf7"/>
        <path id="Path_1" data-name="Path 1" d="M287.494,149.856H58.911a10.158,10.158,0,0,0-10.158,10.158V170h248.9v-9.984A10.158,10.158,0,0,0,287.494,149.856Z" fill="#7584f1"/>
        <g id="Group_1" data-name="Group 1">
          <circle id="Ellipse_3" data-name="Ellipse 3" cx="3.597" cy="3.597" r="3.597" transform="translate(252.769 156.65)" fill="none" stroke="#000" stroke-linejoin="round" stroke-width="1"/>
          <circle id="Ellipse_4" data-name="Ellipse 4" cx="3.597" cy="3.597" r="3.597" transform="translate(266.218 156.65)" fill="none" stroke="#000" stroke-linejoin="round" stroke-width="1"/>
          <circle id="Ellipse_5" data-name="Ellipse 5" cx="3.597" cy="3.597" r="3.597" transform="translate(279.668 156.65)" fill="none" stroke="#000" stroke-linejoin="round" stroke-width="1"/>
        </g>
        <g id="Group_3" data-name="Group 3">
          <g id="Group_2" data-name="Group 2">
            <path id="Path_2" data-name="Path 2" d="M150.813,200.125c-2.837,0-5.584-1.9-7.762-3.713L140.4,194.2a8.7,8.7,0,0,0-5.585-2.1H112.189a3.717,3.717,0,0,0-3.717,3.717v83.333a4.988,4.988,0,0,0,4.989,4.989H227.669a4.989,4.989,0,0,0,4.989-4.989V205.115a4.99,4.99,0,0,0-4.989-4.99Z" fill="#7584f1"/>
            <path id="Path_3" data-name="Path 3" d="M223.563,216.111H191.255a2.608,2.608,0,0,1-2.608-2.608h0a2.608,2.608,0,0,1,2.608-2.608h32.308a2.608,2.608,0,0,1,2.608,2.608h0A2.608,2.608,0,0,1,223.563,216.111Z" fill="none" stroke="#000" stroke-miterlimit="10" stroke-width="1"/>
          </g>
        </g>
      </g>
      <g id="Group_7" data-name="Group 7">
        <path id="Path_4" data-name="Path 4" d="M416.122,193.9s5.736,13.49,6.476,17.4c2.267,11.981,13.033,44.927,16.676,49.055,0,0,6.8.729,10.2-1.214,0,0-8.5-53.912-12.142-61.2s-6.071-19.185-6.071-19.185Z" fill="#ba6f4c"/>
        <g id="Group_5" data-name="Group 5">
          <path id="Path_5" data-name="Path 5" d="M448.643,257.27c-3.761-3.128-11.351-1.271-12.673,3.439a33.612,33.612,0,0,0-1.213,6.648c-.191,1.279-4.845,9.2-3.954,10.819.646,1.176,3.936-2.52,5.584-5.114a.659.659,0,0,1,1.213.3c.312,3.522,1,10.568,1.611,11.443.813,1.173,3.77,6.141,4.647,5.6s-.107-4-.877-6.313.178-7.466.178-7.466,3.9,11.754,5.559,13.878c2.464,3.162,3.285-2,3.285-2,1.477,1.616,2.913-2.232,2.658-3.442-.505-2.389-4.207-10.852-3.552-10.542s4.83,9.25,6.725,9.512.977-2.966-.086-5.1-3.942-8.283-3.942-8.283a40.429,40.429,0,0,0-4.542-12.08C449.235,258.522,448.687,257.307,448.643,257.27Z" fill="#ba6f4c"/>
          <line id="Line_1" data-name="Line 1" x1="5.127" y1="11.922" transform="translate(446.798 276.303)" fill="none" stroke="#000" stroke-linecap="round" stroke-miterlimit="10" stroke-width="1"/>
        </g>
        <path id="Path_6" data-name="Path 6" d="M413.418,171.436l-53.674-2.193v-79.2L388,85.97Z"/>
        <path id="Path_7" data-name="Path 7" d="M387.158,85.3a492.249,492.249,0,0,1,19.479,57.893" fill="none" stroke="#000" stroke-linecap="round" stroke-miterlimit="10" stroke-width="1"/>
        <path id="Path_8" data-name="Path 8" d="M292.214,183.714s12.629,5.613,41.922-16.488l-12.454-13.857Z" fill="#ba6f4c"/>
        <path id="Path_9" data-name="Path 9" d="M384.214,127.936c.533-.093,3.815,2.98,4.4,3.335,5.587,3.413,10.22,3.909,16.528,5.108,12.44,2.365,21.211,22.194,22.476,26.336,1.495,4.9,4.09,13.313,5.585,18.207,0,0-2.452,13.622-18.2,13.317L407.1,177.4s-8.946,20.171-9.472,21.75,5.438,21.224,5.438,21.224-47.009,18.066-74.372,8.332c0,0,9.282-35.463,6.788-36.614-2.362-1.089-7.265-5.358-1.35-24.866,0,0-9.911-5.788-12.278-21.048,0,0,12.892-11.927,21.048-12.191S384.2,127.938,384.214,127.936Z" fill="#9ec68a"/>
        <path id="Path_10" data-name="Path 10" d="M364.481,141.486s3.42,9.077,13.813,3.946a23.332,23.332,0,0,0,12.141-13.42,60.812,60.812,0,0,1-6.221-4.076s-14.568,2.543-26.767,4.335C356.787,133.64,350.9,146.47,364.481,141.486Z" fill="#fff"/>
        <path id="Path_11" data-name="Path 11" d="M383.293,110.966l.921,16.97s-7.893,11.971-17.365,10.656L365.007,127.8Z" fill="#ba6f4c"/>
        <path id="Path_12" data-name="Path 12" d="M367.254,307.55l5.642,71.038,1.231,46.393s10.245,6.627,15.524-3.081c0,0,9.468-48.149,8.4-64.7s.8-36.037.8-36.037Z" fill="#ba6f4c"/>
        <path id="Path_13" data-name="Path 13" d="M327.186,417.879s-28.935,24.907-26.331,24.907,14.9-1.754,22.859-3.683,11.14-7.016,11.14-7.016l.579,4.911,5.5-.7s6.221-13.155,1.881-20.522S327.186,417.879,327.186,417.879Z"/>
        <path id="Path_14" data-name="Path 14" d="M331.237,433.315l4.2,3.683,2.025-6.227-3.255-.789Z"/>
        <path id="Path_15" data-name="Path 15" d="M374.089,418.844s-10.808,32.342-7.161,32.756c6.944.79,15.372-6.884,17.976-11.8s2.315-12.629,2.315-12.629l-2.46,5.789h5.064s2.749-2.631.579-15.261C390.4,417.7,374.089,433.709,374.089,418.844Z"/>
        <path id="Path_16" data-name="Path 16" d="M329.356,305.27l-2.17,112.609s9.983,6.841,15.625-2.105c0,0,11.285-45.254,10.851-61.041s2.17-34.2,2.17-34.2Z" fill="#ba6f4c"/>
        <path id="Path_17" data-name="Path 17" d="M333.434,207.394s12.629,23.153,66.829,3.157c0,0,21.049,54.726,4.736,115.767,0,0-46.307,21.575-90.508-4.21C314.491,322.108,321.858,246.334,333.434,207.394Z"/>
        <path id="Path_18" data-name="Path 18" d="M334.136,130.041s-40.08,28.24-43.062,33.151-9.209,16.137-.438,20.347,43.588-34.116,52.007-47.1Z" fill="#ba6f4c"/>
        <path id="Path_19" data-name="Path 19" d="M298,182.136s12.5-6.8,27.406-23.811" fill="none" stroke="#000" stroke-linecap="round" stroke-miterlimit="10" stroke-width="1"/>
        <path id="Path_20" data-name="Path 20" d="M336.212,192.547s33.18,15.9,53.7-1.641" fill="none" stroke="#000" stroke-linecap="round" stroke-miterlimit="10" stroke-width="1"/>
        <line id="Line_2" data-name="Line 2" x1="7.141" y1="11.189" transform="translate(399.963 166.211)" fill="none" stroke="#000" stroke-linecap="round" stroke-miterlimit="10" stroke-width="1"/>
        <line id="Line_3" data-name="Line 3" y1="8.069" x2="4.034" transform="translate(334.136 159.158)" fill="none" stroke="#000" stroke-linecap="round" stroke-miterlimit="10" stroke-width="1"/>
        <path id="Path_21" data-name="Path 21" d="M355.721,121.064c-2.254-.215-4.4,2.147-5.259,1.878-.685-.214-1.606-3.456-1.953-4.766,1.3-7.606.409-13.506-1.375-11.925a1.85,1.85,0,0,0-.324.489c-.263-2.412-.949-3.619-1.876-2.8a6.771,6.771,0,0,0-.939,1.943c-.279-2.273-.952-3.385-1.852-2.587a15.141,15.141,0,0,0-1.539,3.693,1.55,1.55,0,0,0-.769-.419c-1.288-.43-4.258,10.7-4.4,11.27s-3.292,13.024-3.292,13.024c-1.145,4.509,7.853,6.578,10.5,5.576s8.677-7.508,8.677-7.508-.016-.023-.023-.035c.208-.3.512-.759.936-1.45.912-1.484,5.528-5.206,5.635-5.528S357.975,121.278,355.721,121.064Z" fill="#ba6f4c"/>
        <path id="Path_22" data-name="Path 22" d="M357.868,121.922c.107-.322.107-.644-2.147-.858s-4.4,2.147-5.259,1.878c-.685-.214-1.606-3.456-1.953-4.766,1.3-7.606.409-13.506-1.375-11.925a1.85,1.85,0,0,0-.324.489c-.263-2.412-.949-3.619-1.876-2.8a6.771,6.771,0,0,0-.939,1.943,6.321,6.321,0,0,0-.636-2.338c-.294,7.764.566,19.538,7.459,25.919.313-.327.5-.532.5-.532s-.016-.023-.023-.035c.208-.3.512-.759.936-1.45C353.145,125.966,357.761,122.244,357.868,121.922Z"/>
        <g id="Group_6" data-name="Group 6">
          <path id="Path_23" data-name="Path 23" d="M381.254,114.189l2.039-3.223L365.007,127.8l1.4,8.171C373.995,134.735,377.55,122.467,381.254,114.189Z"/>
          <path id="Path_24" data-name="Path 24" d="M346.315,95.132s-5.408,30.739,12.427,36.949,24.108-23.125,24.146-33.409S378.141,83,365.442,81.713C346.655,79.812,346.315,95.132,346.315,95.132Z" fill="#ba6f4c"/>
          <path id="Path_25" data-name="Path 25" d="M386.849,83.268c-3.649-5.279-9.009-8.183-22.449-7.939a23.22,23.22,0,0,0-18.834,10.563,5.971,5.971,0,0,0,.91,7.882,9.693,9.693,0,0,1,2.387-5.21s21.289,11.538,29.795,9.844l2.028,7.977s2.878-4.084,5.835-5.4C386.521,100.98,390.5,88.548,386.849,83.268Z"/>
          <path id="Path_26" data-name="Path 26" d="M390.227,108.652c-1.385,4.012-4.774,6.5-7.57,5.566s-3.939-4.952-2.554-8.965,4.774-6.5,7.57-5.566S391.612,104.639,390.227,108.652Z" fill="#ba6f4c"/>
          <path id="Path_27" data-name="Path 27" d="M363.953,108.317c-.017,1.055-.574,1.9-1.245,1.894s-1.2-.873-1.185-1.928.574-1.9,1.245-1.895S363.969,107.261,363.953,108.317Z"/>
          <path id="Path_28" data-name="Path 28" d="M349.889,108.273c.039.993-.42,1.818-1.025,1.843s-1.129-.76-1.169-1.752.42-1.818,1.026-1.843S349.849,107.28,349.889,108.273Z"/>
          <path id="Path_29" data-name="Path 29" d="M368.492,100.242s-4.877.718-4.9-3.865" fill="none" stroke="#000" stroke-linecap="round" stroke-miterlimit="10" stroke-width="1"/>
          <path id="Path_30" data-name="Path 30" d="M352.217,98.81s-1.5,4.161-4.958,1.471" fill="none" stroke="#000" stroke-linecap="round" stroke-miterlimit="10" stroke-width="1"/>
          <path id="Path_31" data-name="Path 31" d="M363.692,125.333s2.006-6.359,6.688-2.336Z"/>
          <path id="Path_32" data-name="Path 32" d="M387.6,104.909s-3.021-2.96-5.1,1.96c0,0,1.741,2.1.46,3.585a2.588,2.588,0,0,0,2.83-1.028" fill="none" stroke="#000" stroke-linecap="round" stroke-linejoin="round" stroke-width="1"/>
          <path id="Path_33" data-name="Path 33" d="M386.093,106.745a4.981,4.981,0,0,0-1.265-2.487" fill="none" stroke="#000" stroke-linecap="round" stroke-linejoin="round" stroke-width="1"/>
          <path id="Path_34" data-name="Path 34" d="M351.726,112.2a2.778,2.778,0,0,0-.6,2.629,2.323,2.323,0,0,0,2.192,1.689" fill="none" stroke="#000" stroke-linecap="round" stroke-miterlimit="10" stroke-width="1"/>
        </g>
        <path id="Path_35" data-name="Path 35" d="M384.871,114.221a2.73,2.73,0,1,1-2.729-2.729A2.729,2.729,0,0,1,384.871,114.221Z" fill="#fff"/>
        <path id="Path_36" data-name="Path 36" d="M339.047,134.6a3.376,3.376,0,0,0,3.6,1.842" fill="none" stroke="#000" stroke-linecap="round" stroke-miterlimit="10" stroke-width="1"/>
        <path id="Path_37" data-name="Path 37" d="M340.6,106.992s1.907,1.014-1.184,11.933c0,0,1.907,6.906,1.381,8.222s-3.157,3.508-3.946,3.6" fill="none" stroke="#000" stroke-linecap="round" stroke-miterlimit="10" stroke-width="1"/>
        <path id="Path_38" data-name="Path 38" d="M345.976,123.814a12.181,12.181,0,0,0-2.719,7.1" fill="none" stroke="#000" stroke-linecap="round" stroke-miterlimit="10" stroke-width="1"/>
        <path id="Path_39" data-name="Path 39" d="M343.995,105.886s.621,8.368-.694,12.907" fill="none" stroke="#000" stroke-linecap="round" stroke-miterlimit="10" stroke-width="1"/>
      </g>
      <g id="Group_10" data-name="Group 10">
        <path id="Path_40" data-name="Path 40" d="M260.514,455.211c0,3.886-9.052,7.035-20.219,7.035s-20.22-3.149-20.22-7.035,9.053-7.035,20.22-7.035S260.514,451.326,260.514,455.211Z" fill="#dfdfeb"/>
        <g id="Group_9" data-name="Group 9">
          <g id="Group_8" data-name="Group 8">
            <path id="Path_41" data-name="Path 41" d="M239.841,350.569s-6.115.571-4.034-15.261c1.977-15.039,9.56-26,10.138-26.047,0,0,10.9,15.64,4.07,29.205S239.841,350.569,239.841,350.569Z" fill="#7e9e6e"/>
            <path id="Path_42" data-name="Path 42" d="M289.89,327.68s-14.006,16.787-48.1,28.614c0,0-.211-4.475,11.578-15.306S291.521,322.542,289.89,327.68Z" fill="#7e9e6e"/>
            <path id="Path_43" data-name="Path 43" d="M289.89,327.68s-26.707,4.192-48.1,28.614c0,0-2.1,2.671-2.362,8.417" fill="none" stroke="#000" stroke-linecap="round" stroke-miterlimit="10" stroke-width="1"/>
            <path id="Path_44" data-name="Path 44" d="M189.383,360.174s14.006,16.787,48.1,28.614c0,0,.21-4.475-11.579-15.306S187.752,355.035,189.383,360.174Z" fill="#7e9e6e"/>
            <path id="Path_45" data-name="Path 45" d="M189.383,360.174s26.707,4.192,48.1,28.614c0,0,2.1,2.671,2.362,8.416" fill="none" stroke="#000" stroke-linecap="round" stroke-miterlimit="10" stroke-width="1"/>
            <path id="Path_46" data-name="Path 46" d="M208.3,394.539s9.316,7.616,29.532,1.52c0,0-.261-3.9-7.823-7.508S206.947,390.951,208.3,394.539Z" fill="#7e9e6e"/>
            <path id="Path_47" data-name="Path 47" d="M208.3,394.539s15.408-9.081,29.532,1.52c0,0,1.41,1.272,2.044,6.024" fill="none" stroke="#000" stroke-linecap="round" stroke-miterlimit="10" stroke-width="1"/>
            <path id="Path_48" data-name="Path 48" d="M286.289,354.49s-9.788,26.34-43.877,38.166c0,0-1.174-14.867,10.614-25.7S287.92,349.352,286.289,354.49Z" fill="#7e9e6e"/>
            <path id="Path_49" data-name="Path 49" d="M286.289,354.49s-24.876,5.318-43.877,38.166a24.1,24.1,0,0,0-2.442,9.7" fill="none" stroke="#000" stroke-linecap="round" stroke-miterlimit="10" stroke-width="1"/>
            <path id="Path_50" data-name="Path 50" d="M234.006,358.641s-2.867,4.663-14.162,3.211-23.507-14.878-31.133-12.441C188.711,349.411,207.466,342.688,234.006,358.641Z" fill="#7e9e6e"/>
            <path id="Path_51" data-name="Path 51" d="M241.873,422.615a364.2,364.2,0,0,1-.712-81.881s.435-8.056,4.784-31.473" fill="none" stroke="#000" stroke-linecap="round" stroke-miterlimit="10" stroke-width="1"/>
            <path id="Path_52" data-name="Path 52" d="M191.042,348.8s18.965-4.6,42.964,9.836c5.814,3.5,5.55,10.091,5.18,15.229" fill="none" stroke="#000" stroke-linecap="round" stroke-miterlimit="10" stroke-width="1"/>
          </g>
          <path id="Path_53" data-name="Path 53" d="M218.155,412.943l6.576,40.481c0,2.481,7.015,4.492,15.668,4.492s15.669-2.011,15.669-4.492l6.576-40.481Z" fill="#545fac"/>
          <ellipse id="Ellipse_6" data-name="Ellipse 6" cx="22.244" cy="4.491" rx="22.244" ry="4.491" transform="translate(218.155 408.452)"/>
        </g>
      </g>
      <g id="Group_13" data-name="Group 13">
        <g id="Group_11" data-name="Group 11">
          <path id="Path_54" data-name="Path 54" d="M264.859,50.713A33.014,33.014,0,0,1,287.1,107.25a4.125,4.125,0,0,0-1.184,3.628l2.445,14.471-15.045-8.766a4.053,4.053,0,0,0-2.839-.487,33.025,33.025,0,1,1-5.617-65.383Z" fill="#d3ddf7"/>
        </g>
        <g id="Group_12" data-name="Group 12">
          <path id="Path_55" data-name="Path 55" d="M263.031,98.472a1.292,1.292,0,0,1-1.05-.434,1.818,1.818,0,0,1-.365-1.21A1.771,1.771,0,0,1,262,95.641a1.46,1.46,0,0,1,2.1-.023,1.906,1.906,0,0,1,.343,1.21,1.864,1.864,0,0,1-.366,1.165A1.239,1.239,0,0,1,263.031,98.472ZM262.75,87.1q-.053-1.416-.1-2.9t-.078-2.969q-.027-1.484.026-3.037V66.138h1.146l.053,12.057q0,1.553-.027,3.037t-.077,2.969q-.054,1.484-.1,2.9Z"/>
        </g>
      </g>
    </g>
    <g id="TEXTS">
      <text id="No_Data" data-name="No Data" transform="translate(132.677 250.934)" font-size="18.12" font-family="SegoeUI, Segoe UI"><tspan x="0" y="0">No Data</tspan></text>
    </g>
  </g>
</svg>
